<?xml version="1.0" standalone="no"?>
<!DOCTYPE svg PUBLIC "-//W3C//DTD SVG 20010904//EN"
 "http://www.w3.org/TR/2001/REC-SVG-20010904/DTD/svg10.dtd">
<svg version="1.0" xmlns="http://www.w3.org/2000/svg"
 width="300.000000pt" height="300.000000pt" viewBox="0 0 300.000000 300.000000"
 preserveAspectRatio="xMidYMid meet">
<metadata>
Created by potrace 1.14, written by Peter Selinger 2001-2017
</metadata>
<g transform="translate(0.000000,300.000000) scale(0.100000,-0.100000)"
fill="#000000" stroke="none">
<path d="M2965 2980 c-4 -6 -10 -8 -15 -5 -4 3 -21 -2 -36 -10 -16 -8 -39 -15
-51 -15 -12 0 -25 -4 -28 -10 -3 -5 -17 -10 -31 -10 -21 0 -23 -3 -14 -19 14
-28 13 -31 -16 -31 -14 0 -34 -5 -45 -10 -20 -11 -27 -40 -9 -40 14 0 53 22
62 35 11 15 40 -18 33 -37 -4 -9 -16 -19 -28 -22 l-22 -6 22 -19 22 -19 -21
-5 c-26 -7 -38 -1 -38 19 0 8 -7 14 -15 14 -9 0 -18 7 -21 15 -9 23 -21 18
-31 -12 -10 -28 3 -83 19 -83 4 0 8 -6 8 -14 0 -7 12 -21 26 -30 l25 -17 -28
-27 c-27 -27 -28 -27 -47 -8 -16 16 -17 22 -7 38 9 14 9 23 1 33 -14 17 -70
25 -93 13 -12 -6 -23 -6 -31 1 -10 8 -16 8 -24 -2 -7 -8 -25 -11 -47 -9 l-35
4 24 19 c13 10 31 19 39 19 9 0 19 5 22 10 3 6 21 10 38 10 21 0 42 9 59 25
30 28 28 60 -3 50 -11 -4 -19 -2 -19 4 0 17 -27 13 -34 -4 -3 -9 -18 -15 -35
-15 -16 0 -33 -4 -36 -10 -3 -5 -17 -10 -30 -10 -18 0 -26 -7 -31 -26 -6 -22
-11 -25 -33 -19 -19 4 -22 3 -11 -5 13 -8 13 -10 1 -10 -8 0 -27 -12 -43 -27
-23 -22 -30 -24 -43 -13 -12 10 -19 10 -27 2 -7 -7 -20 -12 -29 -12 -10 0 -21
-5 -25 -12 -4 -7 -3 -8 4 -4 7 4 12 3 12 -3 0 -6 -12 -8 -30 -4 -26 5 -30 2
-30 -15 0 -12 -4 -23 -9 -26 -5 -3 -7 -16 -5 -29 3 -15 0 -13 -13 11 -21 41
-63 47 -55 7 2 -15 0 -25 -7 -25 -6 0 -11 7 -11 16 0 12 -6 15 -22 10 -13 -3
-26 -6 -30 -6 -5 0 -8 -11 -8 -25 0 -28 -12 -32 -30 -10 -17 21 -50 19 -50 -2
0 -15 -2 -16 -10 -3 -8 12 -11 11 -16 -8 -5 -16 -10 -20 -18 -13 -8 7 -21 4
-41 -9 -18 -12 -38 -17 -52 -14 -17 5 -23 2 -23 -9 0 -25 -20 -31 -35 -11 -11
15 -17 17 -36 7 -71 -33 -78 -33 -93 -11 -15 21 -16 21 -31 -15 -11 -26 -23
-39 -43 -43 -15 -4 -37 -13 -50 -21 -13 -8 -33 -16 -44 -18 -12 -3 -31 -14
-44 -26 -14 -13 -30 -19 -39 -15 -21 8 -45 -16 -67 -66 -9 -21 -24 -41 -33
-44 -13 -6 -13 -9 6 -22 20 -14 23 -14 34 1 25 35 31 9 10 -45 -3 -8 6 -27 21
-43 21 -22 26 -38 26 -72 -1 -42 0 -43 31 -43 37 -1 72 -27 87 -65 7 -18 15
-25 26 -21 9 3 12 2 9 -4 -4 -6 7 -15 23 -21 17 -6 33 -17 36 -25 4 -9 21 -14
55 -14 42 0 50 3 56 23 l7 22 7 -25 8 -25 4 29 c4 30 32 56 46 42 4 -4 1 -12
-8 -17 -27 -15 0 -79 43 -101 25 -13 38 -29 47 -57 6 -21 18 -44 26 -51 8 -7
15 -20 15 -29 1 -23 24 -51 43 -51 20 0 67 -21 67 -30 0 -3 16 -13 36 -20 l36
-14 -29 -8 c-16 -5 -29 -4 -31 2 -8 22 -23 8 -20 -17 2 -22 9 -29 31 -31 19
-2 27 1 27 12 0 9 5 16 10 16 13 0 13 -6 0 -31 -7 -12 -21 -19 -41 -19 -29 0
-30 -2 -29 -37 1 -21 1 -42 -1 -48 -5 -22 -7 -30 -8 -41 0 -7 -10 -14 -21 -17
-11 -3 -20 -14 -20 -25 0 -24 -17 -39 -50 -44 -14 -1 -25 -8 -25 -15 0 -16
-41 -53 -58 -53 -19 0 -41 -26 -33 -39 4 -5 2 -12 -4 -16 -14 -9 -13 -42 3
-48 6 -2 17 2 22 10 8 11 16 11 43 1 37 -14 43 -30 10 -27 -50 4 -58 0 -58
-32 0 -16 -16 -64 -36 -104 -33 -67 -41 -77 -87 -100 -28 -14 -56 -25 -63 -25
-6 0 -14 -7 -18 -15 -8 -22 -26 -18 -26 5 0 24 -47 69 -72 70 -9 0 -19 4 -22
8 -2 4 -17 8 -33 7 -21 0 -29 -5 -31 -23 -3 -19 1 -22 30 -23 36 -1 93 -16 67
-18 -9 -1 -27 -9 -39 -19 -21 -17 -21 -20 -10 -80 10 -47 10 -66 1 -75 -6 -6
-11 -20 -11 -31 0 -11 -8 -28 -17 -38 -14 -16 -15 -21 -3 -28 11 -7 12 -16 3
-44 -11 -36 -11 -36 18 -36 23 0 30 5 35 28 9 38 13 42 29 36 8 -4 12 -10 9
-15 -3 -5 2 -9 10 -9 9 0 16 11 18 28 2 16 9 27 18 27 8 0 14 -6 12 -13 -1 -6
5 -12 13 -12 23 0 65 22 59 31 -3 5 0 9 5 9 6 0 11 6 11 14 0 23 22 31 35 13
17 -24 32 -21 39 8 4 14 11 25 17 25 6 0 8 -9 4 -20 -5 -16 -2 -20 15 -20 11
0 23 7 26 15 4 8 12 15 20 15 7 0 11 6 8 14 -3 8 4 16 18 20 33 8 38 8 36 -6
-2 -7 6 -13 17 -13 11 0 20 5 20 11 0 18 32 44 54 44 12 0 20 -5 19 -12 -2 -8
8 -11 32 -9 53 5 68 17 78 64 6 23 10 33 11 22 1 -11 8 -29 17 -40 13 -17 16
-18 24 -5 5 8 10 20 10 26 0 6 8 18 18 26 23 21 62 32 62 19 0 -6 -7 -11 -15
-11 -9 0 -12 -6 -9 -15 4 -9 0 -15 -9 -15 -19 0 -31 -16 -22 -29 5 -9 64 5 75
18 3 3 12 6 20 6 11 0 14 9 13 31 -3 42 26 70 56 54 26 -14 27 -30 2 -37 -12
-3 -17 -11 -14 -19 6 -17 27 -18 56 -2 12 7 32 11 45 9 12 -1 37 2 55 8 18 6
51 12 75 13 44 1 43 0 46 62 2 21 21 33 30 18 3 -4 -1 -20 -8 -34 -9 -16 -10
-31 -5 -39 7 -11 10 -9 15 9 6 21 11 23 48 16 48 -8 84 -31 92 -60 4 -15 13
-21 34 -21 15 0 36 -7 45 -16 18 -19 41 -22 50 -7 11 18 23 11 18 -10 -3 -13
0 -20 8 -21 8 -1 24 -3 37 -4 20 -2 22 2 22 51 0 46 -3 54 -22 60 -27 9 -61 6
-68 -7 -8 -12 -50 1 -50 16 0 7 -10 20 -22 28 -20 14 -21 18 -8 27 8 5 33 15
55 21 22 6 48 20 58 30 10 10 27 19 37 19 11 0 20 5 20 10 0 6 -7 10 -16 10
-10 0 -14 6 -10 15 4 11 -2 15 -20 15 -15 0 -23 4 -19 11 4 6 13 8 21 5 8 -3
21 -3 30 1 13 5 15 23 13 117 -2 62 -8 115 -13 119 -8 6 -7 10 2 14 7 3 12 25
12 59 0 46 -3 54 -19 54 -20 0 -31 18 -31 50 0 13 -11 22 -37 29 -25 7 -39 7
-41 1 -5 -15 -32 -12 -38 5 -4 8 -1 22 5 29 16 19 0 27 -37 20 -26 -5 -30 -11
-30 -35 1 -16 11 -37 25 -48 12 -12 23 -27 23 -35 0 -17 47 -49 61 -40 6 3 21
7 35 9 25 2 32 -9 13 -21 -6 -3 -9 -15 -6 -25 3 -12 -2 -23 -14 -29 -10 -6
-16 -16 -13 -24 3 -8 -9 -23 -28 -37 -18 -13 -35 -27 -36 -31 -2 -5 -19 -15
-38 -23 -18 -7 -39 -18 -46 -24 -89 -73 -116 -84 -240 -97 l-67 -6 -7 27 c-5
22 -2 32 14 46 12 9 22 22 22 28 0 18 -25 12 -40 -10 -8 -11 -20 -27 -25 -35
-6 -8 -26 -17 -45 -20 -29 -4 -40 0 -67 24 -17 16 -38 32 -47 35 -11 5 -16 19
-16 49 0 34 6 50 30 75 l31 33 -32 -7 c-31 -6 -32 -5 -25 23 4 16 14 36 22 45
8 9 18 29 22 44 6 21 19 31 62 46 30 11 73 24 95 28 22 5 53 13 68 20 35 14
38 14 34 -1 -2 -14 42 -12 57 2 12 12 -2 43 -17 37 -7 -2 -18 6 -24 18 -9 21
-7 24 13 29 14 4 24 15 26 29 2 14 17 29 43 41 37 19 105 82 105 99 0 4 16 23
35 41 19 19 35 39 35 44 0 5 7 15 15 22 7 6 28 36 45 66 16 30 35 54 40 54 7
0 10 -24 9 -57 -2 -67 6 -115 23 -146 12 -22 14 -35 18 -97 3 -50 2 -54 -13
-42 -9 8 -27 4 -65 -16 -67 -34 -74 -51 -19 -45 23 2 52 10 65 16 19 9 25 8
32 -3 5 -8 7 -22 4 -31 -2 -9 3 -25 13 -35 17 -17 18 4 21 512 1 349 -1 530
-8 532 -13 5 -13 32 0 32 7 0 10 29 9 75 -1 41 -6 75 -12 75 -5 0 -7 -11 -5
-25 4 -19 1 -25 -13 -25 -27 0 -23 26 6 52 21 18 25 30 25 79 0 37 -5 59 -12
62 -10 4 -10 6 0 6 18 1 16 81 -2 81 -8 0 -18 -5 -21 -10z m-5 -85 c0 -8 -6
-15 -14 -15 -17 0 -28 14 -19 24 12 12 33 6 33 -9z m-26 -136 c-9 -10 -21 -19
-26 -19 -15 0 -8 29 9 39 26 14 37 2 17 -20z m4 -80 c-3 -8 -7 -3 -11 10 -4
17 -3 21 5 13 5 -5 8 -16 6 -23z m-508 -19 c0 -5 -2 -10 -4 -10 -3 0 -8 5 -11
10 -3 6 -1 10 4 10 6 0 11 -4 11 -10z m418 -14 c3 -13 -1 -17 -14 -14 -11 2
-20 11 -22 22 -3 13 1 17 14 14 11 -2 20 -11 22 -22z m-478 -1 c0 -17 -49 -44
-67 -38 -7 3 -16 -2 -19 -11 -3 -9 -15 -16 -25 -16 -17 0 -18 3 -7 20 7 11 20
20 29 20 9 0 24 9 34 20 21 23 55 27 55 5z m270 -1 c0 -8 -5 -12 -10 -9 -6 4
-8 11 -5 16 9 14 15 11 15 -7z m5 -52 c-8 -8 -25 10 -19 20 4 6 9 5 15 -3 4
-7 6 -15 4 -17z m-58 -66 c9 -4 20 -1 25 6 7 9 11 10 14 2 3 -7 14 -10 24 -7
11 3 20 0 20 -6 0 -6 -4 -11 -10 -11 -5 0 -10 -4 -10 -10 0 -5 7 -10 15 -10 8
0 15 6 15 14 0 26 26 24 59 -6 34 -31 35 -51 1 -30 -17 10 -20 10 -20 -6 0
-13 12 -22 41 -31 38 -11 40 -14 34 -42 -6 -25 -4 -29 13 -29 13 0 26 -12 36
-32 9 -17 15 -32 14 -32 -34 -12 -43 -27 -44 -75 0 -28 3 -51 7 -51 14 0 22
-62 8 -70 -10 -7 -10 -12 1 -25 11 -13 11 -18 1 -25 -7 -4 -22 -5 -32 -3 -10
3 -19 0 -19 -6 0 -6 5 -11 10 -11 6 0 10 -10 10 -21 0 -16 -5 -20 -20 -16 -20
5 -30 -18 -11 -25 5 -1 6 -17 4 -34 -4 -28 -10 -33 -43 -38 -27 -4 -37 -11
-36 -23 1 -12 -8 -17 -37 -18 -27 -2 -46 -10 -63 -29 -14 -14 -35 -27 -47 -28
-12 -1 -30 -2 -40 -2 -11 -1 -25 -9 -32 -19 -15 -21 -29 -22 -52 -3 -47 38
-114 86 -121 86 -12 0 -52 64 -62 99 -10 37 -5 153 8 179 5 9 13 39 17 66 4
29 15 57 28 70 26 26 47 69 47 96 0 11 4 20 8 20 5 0 18 24 30 53 34 79 56
101 94 93 37 -7 87 12 89 34 1 8 4 3 6 -12 2 -14 11 -29 20 -32z m-522 14 c3
-5 1 -10 -4 -10 -6 0 -11 5 -11 10 0 6 2 10 4 10 3 0 8 -4 11 -10z m100 1 c3
-5 1 -12 -5 -16 -5 -3 -10 1 -10 9 0 18 6 21 15 7z m222 -23 c-3 -8 -6 -5 -6
6 -1 11 2 17 5 13 3 -3 4 -12 1 -19z m-247 2 c0 -5 -4 -10 -10 -10 -5 0 -10 5
-10 10 0 6 5 10 10 10 6 0 10 -4 10 -10z m827 -24 c-7 -21 -37 -19 -37 2 0 15
5 19 20 15 12 -3 19 -11 17 -17z m-92 -6 c3 -5 1 -10 -4 -10 -6 0 -11 5 -11
10 0 6 2 10 4 10 3 0 8 -4 11 -10z m-968 -6 c-3 -3 -12 -4 -19 -1 -8 3 -5 6 6
6 11 1 17 -2 13 -5z m333 -14 c0 -5 -4 -10 -10 -10 -5 0 -10 5 -10 10 0 6 5
10 10 10 6 0 10 -4 10 -10z m725 -51 c-5 -7 -11 -6 -21 2 -11 9 -12 15 -2 26
10 12 13 12 20 -1 5 -9 6 -21 3 -27z m-1175 17 c0 -3 -4 -8 -10 -11 -5 -3 -10
-1 -10 4 0 6 5 11 10 11 6 0 10 -2 10 -4z m-150 -14 c0 -25 -27 -62 -45 -62
-14 0 -25 -11 -33 -32 -11 -29 -13 -30 -24 -15 -12 16 -15 16 -46 -3 -28 -17
-31 -23 -22 -40 7 -14 7 -20 0 -20 -5 0 -10 5 -10 11 0 5 -4 7 -10 4 -15 -10
-12 -35 5 -35 15 0 21 -21 8 -33 -9 -10 -32 25 -33 50 0 12 -4 25 -10 28 -12
8 -13 25 -1 25 5 0 23 14 41 30 18 17 42 30 55 30 12 0 30 9 40 20 10 11 22
20 27 20 5 0 16 7 24 15 17 16 34 20 34 7z m600 -5 c0 -20 -47 -60 -60 -52 -7
4 -1 17 17 35 31 32 43 36 43 17z m673 -33 c-4 -10 -9 -12 -15 -6 -12 12 -1
35 12 27 5 -3 6 -13 3 -21z m-1366 -152 c-19 -18 -22 -7 -10 38 l6 24 10 -22
c8 -18 7 -27 -6 -40z m-177 28 c0 -5 -4 -10 -10 -10 -5 0 -10 5 -10 10 0 6 5
10 10 10 6 0 10 -4 10 -10z m790 -41 c0 -18 -35 -5 -38 14 -3 16 -1 17 17 7
12 -6 21 -15 21 -21z m-20 -44 c-12 -15 -30 -12 -30 6 0 5 10 9 21 9 18 0 19
-2 9 -15z m-540 -109 c0 -8 5 -16 11 -18 7 -2 9 -13 5 -26 -8 -24 -26 -21 -26
5 0 9 -7 25 -17 35 -15 17 -15 18 5 18 12 0 22 -6 22 -14z m-180 -26 c0 -5 -7
-10 -15 -10 -8 0 -15 5 -15 10 0 6 7 10 15 10 8 0 15 -4 15 -10z m1100 -380
c22 -1 23 -2 7 -11 -23 -13 -57 -2 -57 19 0 12 3 13 12 4 7 -7 23 -12 38 -12z
m-359 -13 c-13 -13 -26 -3 -16 12 3 6 11 8 17 5 6 -4 6 -10 -1 -17z m259 -47
c0 -5 -4 -10 -10 -10 -5 0 -10 5 -10 10 0 6 5 10 10 10 6 0 10 -4 10 -10z
m-406 -313 c26 -19 -1 -39 -43 -31 -30 6 -31 8 -15 25 20 22 34 24 58 6z
m-100 -122 c-6 -15 -44 -41 -44 -30 0 3 6 14 12 25 15 23 40 27 32 5z m961
-25 c17 -27 -45 -74 -68 -51 -8 8 -4 17 14 35 26 26 44 32 54 16z m-490 -149
c3 -5 1 -13 -5 -16 -15 -9 -43 3 -35 15 8 13 32 13 40 1z m312 -27 c-3 -3 -12
-4 -19 -1 -8 3 -5 6 6 6 11 1 17 -2 13 -5z m18 -24 c3 -5 1 -10 -4 -10 -6 0
-11 5 -11 10 0 6 2 10 4 10 3 0 8 -4 11 -10z m-135 -46 c0 -12 -54 -44 -75
-44 -7 0 -6 45 2 53 3 4 21 7 40 7 23 0 33 -5 33 -16z m-165 -64 c3 -5 1 -10
-4 -10 -6 0 -11 5 -11 10 0 6 2 10 4 10 3 0 8 -4 11 -10z m-375 -107 c0 -7 -7
-13 -15 -13 -8 0 -15 6 -15 13 0 8 7 14 15 14 8 0 15 -6 15 -14z m-440 -115
c0 -18 -2 -20 -9 -8 -6 8 -7 18 -5 22 9 14 14 9 14 -14z"/>
<path d="M2463 2333 c-30 -34 -33 -42 -27 -76 4 -29 2 -43 -13 -59 -16 -19
-16 -21 -1 -15 25 9 54 -53 39 -82 -6 -11 -11 -30 -11 -43 0 -24 -22 -75 -52
-117 -13 -19 -15 -28 -6 -38 9 -11 15 -10 33 7 12 11 26 20 32 20 6 0 8 10 6
23 -2 16 9 36 41 70 25 26 49 47 52 47 4 0 16 8 26 17 17 15 19 15 33 -3 13
-18 15 -18 31 -2 20 20 9 41 -17 33 -13 -5 -19 -2 -19 10 0 14 -2 14 -25 -1
-24 -16 -25 -16 -18 2 3 11 9 21 12 24 4 3 12 18 19 34 l13 29 24 -23 25 -23
0 21 c0 12 5 31 12 41 15 24 -4 73 -25 65 -8 -3 -19 2 -26 10 -7 9 -28 18 -47
22 -19 3 -39 15 -45 25 -14 27 -27 24 -66 -18z m174 -245 c-3 -8 -6 -5 -6 6
-1 11 2 17 5 13 3 -3 4 -12 1 -19z"/>
<path d="M2410 2110 c0 -5 5 -10 10 -10 6 0 10 5 10 10 0 6 -4 10 -10 10 -5 0
-10 -4 -10 -10z"/>
<path d="M2790 2089 c0 -5 5 -7 10 -4 6 3 10 8 10 11 0 2 -4 4 -10 4 -5 0 -10
-5 -10 -11z"/>
<path d="M2650 2861 c0 -12 6 -21 14 -21 17 0 15 32 -2 38 -7 2 -12 -6 -12
-17z"/>
<path d="M1323 2673 c-40 -2 -73 -8 -73 -13 0 -6 -7 -10 -15 -10 -8 0 -31 -10
-51 -22 -31 -20 -35 -27 -30 -56 3 -23 1 -35 -10 -39 -7 -3 -14 -14 -14 -24 0
-12 -12 -24 -31 -32 -36 -14 -59 -67 -48 -107 5 -17 7 -19 8 -7 1 24 21 11 21
-13 0 -11 -9 -24 -20 -30 -15 -8 -19 -17 -15 -31 4 -11 2 -26 -4 -33 -12 -14
-4 -96 9 -96 12 0 31 -73 28 -107 -2 -25 -7 -31 -19 -28 -11 4 -19 -2 -24 -17
-4 -13 -9 -27 -10 -33 -20 -58 -22 -75 -14 -81 5 -3 7 -15 3 -26 -3 -12 -1
-24 6 -28 25 -16 -34 -89 -73 -90 -13 0 -17 -6 -15 -22 3 -24 33 -32 55 -15
18 13 29 -19 13 -38 -7 -8 -20 -15 -29 -15 -25 -1 -45 -21 -69 -70 -44 -89
-69 -126 -80 -122 -7 2 -16 -8 -21 -21 -6 -14 -15 -28 -20 -32 -6 -3 -11 -12
-11 -20 0 -14 -39 -62 -102 -128 -21 -22 -38 -44 -38 -49 0 -5 -4 -7 -9 -4 -5
4 -38 -24 -73 -61 -34 -37 -78 -82 -95 -100 -18 -18 -35 -44 -38 -56 -3 -12
-19 -31 -36 -42 -16 -11 -31 -27 -34 -36 -3 -9 -14 -24 -25 -34 -11 -10 -20
-25 -20 -33 0 -15 -13 -31 -57 -74 -12 -11 -20 -25 -17 -30 3 -5 -2 -28 -11
-53 -16 -41 -16 -46 0 -89 12 -32 23 -46 36 -46 11 0 19 -4 19 -10 0 -5 18
-10 40 -10 34 0 41 -4 46 -25 4 -15 13 -25 24 -25 9 0 25 -9 35 -20 20 -22 45
-27 45 -7 0 6 5 4 11 -6 9 -15 22 -18 72 -16 34 1 72 -1 83 -5 18 -5 23 -2 28
19 6 24 26 36 26 14 0 -24 187 64 196 93 9 29 -2 33 -32 9 -15 -11 -36 -21
-48 -21 -12 0 -37 -11 -56 -23 -19 -13 -55 -29 -80 -36 -59 -17 -160 -14 -181
5 -8 8 -22 14 -31 14 -34 0 -65 68 -38 85 32 20 -8 85 -52 85 -22 0 -23 -8 -2
-31 26 -28 3 -75 -39 -82 -52 -7 -74 42 -56 124 7 32 22 56 54 87 24 23 49 42
55 42 5 0 10 7 10 15 0 8 11 22 25 31 13 9 27 24 30 35 4 10 13 19 20 19 10 0
12 -6 8 -18 -7 -16 -6 -16 11 1 20 19 44 22 66 6 12 -8 12 -12 2 -16 -10 -4
-10 -8 -1 -20 10 -12 10 -16 -2 -24 -11 -7 -9 -9 8 -9 16 0 23 8 28 31 4 18
15 33 25 36 18 5 51 45 63 76 6 15 3 17 -13 12 -31 -10 -25 24 9 61 17 18 34
47 39 65 6 24 14 34 27 32 11 -1 24 6 31 15 12 16 13 16 19 0 4 -10 4 -26 0
-35 -5 -12 -9 -14 -12 -5 -8 21 -33 13 -33 -11 0 -12 -9 -29 -20 -37 -11 -8
-20 -20 -20 -26 0 -7 -6 -15 -12 -17 -10 -4 -9 -8 2 -16 21 -15 30 -14 30 4 0
8 6 15 14 15 8 0 31 16 52 35 39 37 75 58 136 80 32 12 39 12 45 0 8 -13 25
-19 51 -16 7 0 20 17 28 37 15 36 16 36 62 30 40 -5 49 -3 63 15 15 20 22 21
87 14 40 -4 72 -11 72 -16 0 -5 11 -9 25 -9 14 0 28 -7 31 -15 8 -19 40 -20
47 -1 7 18 47 9 47 -10 0 -23 91 -6 115 21 11 13 29 25 40 27 26 4 36 18 29
41 -4 13 0 17 19 17 14 0 27 6 30 13 5 17 -60 46 -105 47 -20 0 -48 4 -63 10
-23 9 -25 14 -20 44 6 28 3 36 -14 45 -24 14 -27 43 -6 61 12 10 16 9 21 -4 3
-9 17 -16 30 -16 17 0 24 -6 24 -19 0 -10 7 -32 15 -47 8 -16 15 -37 15 -47 0
-27 54 -19 58 9 3 22 -71 143 -98 158 -8 5 -28 23 -45 41 -26 27 -45 34 -143
55 -86 18 -118 21 -135 12 -12 -6 -35 -13 -50 -17 -46 -10 -31 -39 23 -45 43
-5 44 -6 22 -18 -13 -8 -28 -27 -34 -43 -10 -29 -33 -39 -40 -17 -8 23 -28 -4
-28 -37 0 -24 5 -35 19 -40 19 -6 33 -38 25 -59 -6 -17 -43 -38 -54 -31 -6 4
-10 17 -10 31 0 19 -5 24 -26 24 -21 0 -24 4 -19 20 4 11 2 20 -4 20 -13 0
-15 106 -2 114 5 4 5 16 -2 29 l-11 23 -20 -20 c-12 -12 -21 -24 -21 -28 0
-13 -45 -39 -56 -33 -6 5 -2 13 11 22 12 8 19 21 16 29 -7 17 27 54 49 54 9 0
15 9 15 25 0 16 6 25 16 25 11 0 14 5 10 16 -4 10 1 26 11 37 16 18 16 20 1
14 -14 -5 -15 -2 -6 25 8 24 8 32 -3 40 -11 7 -9 8 5 4 17 -6 18 -2 13 33 -4
35 -2 40 19 45 19 5 24 13 24 36 0 23 5 30 19 30 11 0 21 9 24 21 4 16 11 19
26 14 23 -7 95 4 86 14 -4 3 -11 6 -17 6 -19 0 -34 33 -21 46 8 8 16 6 28 -9
19 -21 46 -19 66 4 9 12 4 14 -33 14 -24 0 -49 5 -56 12 -6 6 -22 13 -34 15
-20 3 -103 76 -103 91 -1 4 -7 18 -14 30 -8 15 -10 34 -5 50 4 15 8 32 9 37 9
59 19 96 26 101 5 3 9 11 9 17 0 8 -3 9 -8 1 -5 -7 -14 -7 -30 2 -23 11 -23
11 13 28 20 10 39 25 42 34 17 57 52 84 78 62 7 -6 26 -4 50 5 22 8 67 14 100
15 55 0 63 -3 87 -30 15 -17 29 -38 31 -48 3 -9 3 7 0 36 -4 38 -2 52 7 52 7
0 10 8 7 19 -3 13 1 22 12 25 9 3 4 4 -11 2 -16 -2 -25 1 -22 8 4 10 -82 50
-96 44 -3 -1 -38 -4 -77 -5z m82 -33 c-5 -17 -2 -20 24 -20 25 0 31 -4 31 -21
0 -20 -4 -21 -42 -15 -22 4 -45 9 -50 12 -14 9 -9 44 7 44 8 0 15 5 15 10 0 6
5 10 11 10 6 0 8 -9 4 -20z m-105 -19 c0 -23 -25 -47 -35 -31 -3 5 2 10 12 10
17 1 17 1 1 11 -24 13 -23 29 2 29 13 0 20 -7 20 -19z m-193 -477 c-3 -3 -12
-4 -19 -1 -8 3 -5 6 6 6 11 1 17 -2 13 -5z m33 -137 c0 -13 -71 -79 -78 -73
-6 7 16 54 36 74 6 7 12 21 12 30 0 13 2 13 15 -4 8 -10 15 -23 15 -27z m81
-534 c8 -9 33 -25 57 -35 23 -10 42 -26 42 -34 0 -8 7 -17 15 -20 26 -10 17
-24 -15 -24 -67 0 -130 54 -130 110 0 24 13 26 31 3z m-47 -14 c-8 -14 -24
-10 -24 6 0 9 6 12 15 9 8 -4 12 -10 9 -15z m-221 -77 c-4 -18 -2 -23 10 -20
9 2 15 -1 14 -7 -1 -5 -5 -9 -9 -8 -4 2 -5 -4 -1 -12 3 -9 -3 -25 -12 -35 -19
-21 -55 -27 -55 -10 0 6 -9 10 -20 10 -21 0 -29 30 -7 30 13 1 57 34 57 44 0
3 -9 1 -20 -6 -14 -9 -23 -9 -30 -2 -17 17 -2 41 33 51 37 11 49 0 40 -35z
m-113 -2 c-11 -20 -30 -28 -30 -12 0 11 22 32 32 32 5 0 4 -9 -2 -20z m240
-24 c0 -3 -4 -8 -10 -11 -5 -3 -10 -1 -10 4 0 6 5 11 10 11 6 0 10 -2 10 -4z
m-250 -30 c0 -15 -40 -49 -48 -42 -6 6 29 56 39 56 5 0 9 -6 9 -14z m-75 -16
c3 -5 1 -10 -4 -10 -6 0 -11 5 -11 10 0 6 2 10 4 10 3 0 8 -4 11 -10z m335
-14 c0 -7 -7 -19 -15 -26 -12 -10 -16 -8 -23 11 l-9 23 -17 -27 c-10 -14 -15
-31 -11 -37 9 -14 -20 -24 -39 -13 -26 15 42 83 83 83 20 0 31 -5 31 -14z
m153 0 c3 -8 0 -17 -8 -19 -17 -7 -25 1 -18 19 7 18 19 18 26 0z m73 -16 c8 0
14 -9 14 -20 0 -11 -4 -20 -8 -20 -16 0 -32 25 -31 50 1 16 3 19 6 8 2 -10 11
-18 19 -18z m-546 -30 c0 -5 -4 -10 -9 -10 -5 0 -24 -12 -41 -26 -17 -15 -34
-23 -38 -19 -4 4 9 20 28 36 35 29 60 37 60 19z m640 -5 c0 -8 -4 -15 -10 -15
-5 0 -10 7 -10 15 0 8 5 15 10 15 6 0 10 -7 10 -15z m-550 -20 c0 -12 -45 -55
-57 -55 -21 0 -15 17 13 39 25 20 44 27 44 16z m-194 -101 c-7 -19 -46 -18
-46 1 0 8 6 15 14 15 8 0 17 8 21 18 8 16 8 16 12 -1 3 -10 2 -25 -1 -33z
m-51 -24 c3 -5 1 -10 -4 -10 -6 0 -11 5 -11 10 0 6 2 10 4 10 3 0 8 -4 11 -10z
m5 -133 c0 -22 -32 -51 -44 -40 -8 8 -8 48 1 56 16 16 43 6 43 -16z"/>
<path d="M1570 2558 c0 -7 7 -22 15 -32 12 -16 15 -17 15 -4 0 24 -11 48 -21
48 -5 0 -9 -6 -9 -12z"/>
<path d="M1272 2493 c2 -13 -8 -19 -39 -26 -45 -9 -46 -10 -45 -67 0 -19 -4
-37 -9 -41 -16 -9 2 -120 23 -141 22 -22 23 -28 4 -28 -19 0 -25 -21 -11 -46
9 -19 13 -20 29 -9 10 8 15 19 11 24 -3 6 0 14 9 17 23 9 30 37 8 32 -13 -4
-24 5 -39 32 -21 36 -21 37 -3 78 11 23 23 42 28 42 4 0 8 20 8 45 1 25 4 48
8 52 10 10 36 -26 36 -49 0 -11 5 -15 14 -12 7 3 16 -2 19 -10 12 -32 23 -15
23 35 -1 37 4 54 17 63 28 21 20 26 -38 26 -47 0 -55 -3 -53 -17z"/>
<path d="M1438 2503 c7 -3 16 -2 19 1 4 3 -2 6 -13 5 -11 0 -14 -3 -6 -6z"/>
<path d="M1132 2235 c0 -16 2 -22 5 -12 2 9 2 23 0 30 -3 6 -5 -1 -5 -18z"/>
<path d="M1265 2113 c9 -38 14 -41 30 -20 17 24 9 47 -17 47 -17 0 -19 -4 -13
-27z"/>
<path d="M1174 1946 c-3 -8 -4 -23 -2 -32 2 -14 6 -12 15 9 8 16 9 29 3 32 -6
4 -13 -1 -16 -9z"/>
<path d="M1253 1853 c-18 -9 -33 -20 -33 -25 0 -4 -6 -8 -14 -8 -20 0 -31 -19
-18 -32 17 -17 89 0 95 23 4 14 14 19 40 19 30 0 35 -4 41 -30 3 -17 14 -33
23 -36 10 -4 32 -12 50 -20 17 -8 40 -14 52 -14 11 0 24 -8 30 -17 6 -12 20
-16 50 -15 28 2 43 -2 47 -11 3 -9 13 -13 25 -10 20 6 27 -11 9 -22 -5 -3 -10
-15 -10 -26 0 -25 15 -24 41 2 l20 20 6 -20 c3 -12 11 -21 17 -21 7 0 25 -14
42 -31 24 -25 95 -69 112 -69 2 0 2 9 -1 21 -3 12 0 22 9 26 11 4 12 9 4 19
-7 7 -17 11 -24 8 -12 -5 -22 5 -85 86 -13 17 -28 29 -35 27 -6 -3 -21 4 -32
15 -12 10 -32 20 -45 21 -13 0 -27 5 -30 10 -4 5 -28 9 -53 9 -25 -1 -46 3
-46 8 0 5 -10 10 -22 12 -13 2 -27 13 -33 26 -5 12 -16 22 -24 22 -8 0 -24 9
-36 20 -30 28 -129 36 -172 13z m147 -43 c-19 -13 -30 -13 -30 0 0 6 10 10 23
10 18 0 19 -2 7 -10z"/>
<path d="M2832 1758 c-7 -7 -12 -16 -12 -21 0 -4 -25 -33 -56 -64 -50 -50 -54
-57 -40 -71 12 -13 18 -13 30 -2 9 7 16 18 16 26 0 7 18 20 40 30 22 10 40 23
40 30 0 7 7 20 16 28 9 10 13 24 9 36 -7 23 -25 26 -43 8z"/>
<path d="M900 1705 c0 -8 5 -15 10 -15 6 0 10 7 10 15 0 8 -4 15 -10 15 -5 0
-10 -7 -10 -15z"/>
<path d="M1070 1710 c0 -5 5 -10 10 -10 6 0 10 5 10 10 0 6 -4 10 -10 10 -5 0
-10 -4 -10 -10z"/>
<path d="M2633 1582 c4 -5 0 -18 -8 -28 -19 -25 -19 -54 0 -54 8 0 15 -3 15
-8 0 -10 -38 -42 -49 -42 -5 0 -11 -4 -13 -8 -4 -12 -105 -82 -118 -82 -5 0
-6 -7 -3 -17 4 -10 2 -14 -4 -10 -12 8 -74 -32 -81 -50 -11 -35 91 12 137 62
17 19 38 35 46 35 8 0 22 11 31 25 15 23 88 65 112 65 6 0 30 19 55 43 36 34
43 46 36 60 -8 14 -14 15 -32 5 -25 -13 -82 -11 -111 4 -11 6 -16 6 -13 0z"/>
<path d="M1922 1461 c-22 -19 -30 -33 -26 -44 8 -23 31 -21 39 2 3 11 15 23
26 26 21 7 27 45 7 45 -7 -1 -28 -13 -46 -29z"/>
<path d="M1870 1470 c0 -5 5 -10 11 -10 5 0 7 5 4 10 -3 6 -8 10 -11 10 -2 0
-4 -4 -4 -10z"/>
<path d="M1848 1380 c-15 -4 -39 -20 -55 -34 -15 -14 -36 -29 -45 -32 -10 -3
-18 -9 -18 -14 0 -5 -3 -15 -6 -23 -8 -23 27 -30 61 -11 27 15 95 90 103 114
4 11 -2 11 -40 0z"/>
<path d="M2644 1256 c-21 -19 -35 -38 -31 -42 4 -4 27 11 50 34 50 50 37 56
-19 8z"/>
<path d="M1716 1221 c-3 -5 1 -11 9 -15 15 -6 29 7 18 18 -9 9 -21 8 -27 -3z"/>
<path d="M1250 1153 c-51 -10 -63 -43 -15 -43 13 0 32 -9 42 -19 12 -13 23
-17 32 -12 11 7 11 15 0 45 -7 20 -18 35 -24 35 -5 -1 -21 -4 -35 -6z"/>
<path d="M1350 1114 c-13 -34 -13 -34 10 -34 16 0 20 7 20 30 0 37 -17 39 -30
4z"/>
<path d="M930 1117 l-25 -10 23 -5 c26 -4 36 1 31 16 -3 6 -14 5 -29 -1z"/>
<path d="M860 1088 c0 -14 -63 -56 -117 -79 -20 -8 -33 -21 -33 -31 0 -19 25
-25 35 -8 3 6 17 10 30 10 12 0 33 11 46 25 13 13 29 25 35 25 15 0 30 19 38
48 6 18 3 22 -13 22 -12 0 -21 -6 -21 -12z"/>
<path d="M1200 1065 c0 -8 2 -15 4 -15 2 0 6 7 10 15 3 8 1 15 -4 15 -6 0 -10
-7 -10 -15z"/>
<path d="M1240 1030 c0 -5 5 -10 11 -10 5 0 7 5 4 10 -3 6 -8 10 -11 10 -2 0
-4 -4 -4 -10z"/>
<path d="M1132 1015 c-14 -8 -19 -15 -13 -19 13 -8 51 10 51 24 0 13 -9 11
-38 -5z"/>
<path d="M1445 990 c-3 -5 -1 -10 4 -10 6 0 11 5 11 10 0 6 -2 10 -4 10 -3 0
-8 -4 -11 -10z"/>
<path d="M900 975 c0 -8 4 -15 9 -15 5 0 11 7 15 15 3 9 0 15 -9 15 -8 0 -15
-7 -15 -15z"/>
<path d="M1348 983 c7 -3 16 -2 19 1 4 3 -2 6 -13 5 -11 0 -14 -3 -6 -6z"/>
<path d="M1060 940 c0 -5 5 -10 11 -10 5 0 7 5 4 10 -3 6 -8 10 -11 10 -2 0
-4 -4 -4 -10z"/>
<path d="M1355 930 c-8 -13 -1 -24 14 -19 6 3 7 10 2 18 -6 10 -10 10 -16 1z"/>
<path d="M1010 910 c0 -5 -8 -10 -18 -10 -10 0 -29 -8 -42 -17 -14 -10 -35
-16 -48 -14 -18 2 -23 -2 -20 -15 9 -47 65 -40 126 16 35 31 41 50 17 50 -8 0
-15 -4 -15 -10z"/>
<path d="M1245 860 c-3 -5 -2 -10 4 -10 5 0 13 5 16 10 3 6 2 10 -4 10 -5 0
-13 -4 -16 -10z"/>
<path d="M468 843 c-4 -14 2 -18 24 -20 32 -3 35 4 11 23 -24 18 -30 17 -35
-3z"/>
<path d="M760 819 c-25 -12 -56 -26 -69 -33 -31 -14 -52 -47 -42 -64 15 -25
171 73 171 109 0 13 -9 11 -60 -12z"/>
<path d="M402 818 c-16 -16 -15 -38 2 -38 13 0 26 20 26 41 0 13 -14 11 -28
-3z"/>
<path d="M1115 810 c-3 -5 1 -10 9 -10 9 0 16 5 16 10 0 6 -4 10 -9 10 -6 0
-13 -4 -16 -10z"/>
<path d="M1200 720 c0 -6 -74 -30 -93 -30 -8 0 -25 -8 -38 -19 -15 -12 -39
-18 -64 -18 -32 1 -46 -5 -72 -30 -31 -30 -44 -63 -25 -63 5 0 29 13 53 30 53
36 59 37 59 7 0 -28 -17 -47 -44 -48 -20 0 -20 -1 2 -16 27 -19 28 -43 2 -76
-26 -33 -24 -113 3 -111 10 1 17 -5 17 -16 0 -11 10 -20 26 -24 29 -8 64 1 64
15 0 5 8 9 18 9 24 1 55 26 47 39 -10 17 -25 13 -25 -7 0 -14 -8 -19 -32 -20
-57 -2 -65 5 -78 69 -14 65 -8 78 32 79 9 0 20 10 23 23 4 12 14 33 23 47 9
14 17 31 18 39 4 20 45 46 74 46 15 0 24 5 23 13 -2 8 9 12 32 12 28 0 35 -4
35 -20 0 -25 12 -26 33 -2 22 24 21 35 -4 58 -14 12 -36 19 -65 19 -24 0 -44
-2 -44 -5z"/>
<path d="M517 683 c-4 -3 -7 -13 -7 -21 0 -12 3 -12 15 -2 8 7 15 16 15 21 0
11 -14 12 -23 2z"/>
<path d="M1326 493 c-11 -27 -6 -53 9 -53 8 0 15 9 15 20 0 11 5 20 10 20 18
0 11 18 -9 23 -12 3 -22 -1 -25 -10z"/>
</g>
</svg>
